<?xml version="1.0" encoding="UTF-8"?>
<svg width="12px" height="12px" viewBox="0 0 12 12" version="1.1" xmlns="http://www.w3.org/2000/svg" xmlns:xlink="http://www.w3.org/1999/xlink">
    <title>形状结合</title>
    <g id="首页" stroke="none" stroke-width="1" fill="none" fill-rule="evenodd">
        <g id="弹窗" transform="translate(-879.000000, -390.000000)" fill="#90929B">
            <g id="编组" transform="translate(495.000000, 362.000000)">
                <path d="M384.882484,28.1514103 L390,33.269 L395.117516,28.1514103 C395.319396,27.9495299 395.646709,27.9495299 395.84859,28.1514103 C396.05047,28.3532908 396.05047,28.6806036 395.84859,28.882484 L390.731,34 L395.84859,39.117516 C396.05047,39.3193964 396.05047,39.6467092 395.84859,39.8485897 C395.646709,40.0504701 395.319396,40.0504701 395.117516,39.8485897 L390,34.731 L384.882484,39.8485897 C384.680604,40.0504701 384.353291,40.0504701 384.15141,39.8485897 C383.94953,39.6467092 383.94953,39.3193964 384.15141,39.117516 L389.269,34 L384.15141,28.882484 C383.94953,28.6806036 383.94953,28.3532908 384.15141,28.1514103 C384.353291,27.9495299 384.680604,27.9495299 384.882484,28.1514103 Z" id="形状结合"></path>
            </g>
        </g>
    </g>
</svg>